<svg width="42" height="24" viewBox="0 0 42 24" fill="none" xmlns="http://www.w3.org/2000/svg">
<path d="M20.5471 23.9999C19.2602 24.0025 18.025 23.4956 17.1131 22.5907L1.18316 6.77973C0.810709 6.4153 0.514394 5.98094 0.311325 5.50175C0.108257 5.02255 0.00245922 4.50801 4.23658e-05 3.98783C-0.00237449 3.46766 0.0986373 2.95216 0.297244 2.47111C0.495851 1.99006 0.788118 1.55299 1.15717 1.18514C1.52621 0.817289 1.96473 0.52595 2.44739 0.327947C2.93004 0.129944 3.44728 0.0292 3.96922 0.0315338C4.49117 0.0338675 5.00748 0.139233 5.48833 0.341544C5.96919 0.543855 6.40506 0.839104 6.77078 1.21024L20.5471 14.9399L34.3234 1.21024C35.0645 0.471678 36.0696 0.0567595 37.1176 0.0567595C38.1657 0.0567596 39.1708 0.471678 39.9118 1.21024C40.6529 1.9488 41.0692 2.9505 41.0692 3.99498C41.0692 5.03946 40.6529 6.04117 39.9118 6.77973L23.9811 22.5907C23.0692 23.4956 21.834 24.0025 20.5471 23.9999ZM3.97657 0.860541C3.35449 0.860791 2.74644 1.04479 2.22925 1.3893C1.71206 1.73381 1.30893 2.22337 1.0708 2.79612C0.832671 3.36887 0.770225 3.99911 0.891352 4.60722C1.01248 5.21532 1.31174 5.774 1.75134 6.21267L17.6813 22.022C18.4433 22.7758 19.4734 23.1988 20.5471 23.1988C21.6208 23.1988 22.6509 22.7758 23.4129 22.022L39.3429 6.21187C39.9278 5.62265 40.255 4.82658 40.2527 3.99768C40.2505 3.16878 39.9191 2.37448 39.3309 1.78841C38.7427 1.20234 37.9457 0.872181 37.1139 0.870097C36.2822 0.868013 35.4835 1.19418 34.8924 1.77729L20.832 15.79C20.7946 15.8274 20.7502 15.857 20.7013 15.8772C20.6524 15.8975 20.6 15.9079 20.5471 15.9079C20.4942 15.9079 20.4418 15.8975 20.3929 15.8772C20.344 15.857 20.2996 15.8274 20.2622 15.79L6.2018 1.77729C5.9097 1.48603 5.56276 1.25511 5.1809 1.09779C4.79904 0.940474 4.38977 0.859848 3.97657 0.860541Z" fill="#505673"/>
</svg>
