<svg width="50" height="36" viewBox="0 0 50 36" fill="none" xmlns="http://www.w3.org/2000/svg">
<path d="M44.7698 0H5.23026C3.84359 0.00156695 2.51417 0.549221 1.53365 1.52281C0.553128 2.49641 0.0015781 3.81644 0 5.19331V30.8067C0.0015781 32.1836 0.553128 33.5036 1.53365 34.4772C2.51417 35.4508 3.84359 35.9984 5.23026 36H44.7697C46.1564 35.9984 47.4858 35.4508 48.4664 34.4772C49.4469 33.5036 49.9984 32.1836 50 30.8067V5.19331C49.9985 3.81644 49.447 2.49639 48.4664 1.52279C47.4859 0.549188 46.1565 0.00153957 44.7698 0ZM35.4705 17.9929L47.908 8.30036V29.9812L35.4705 17.9929ZM5.23026 2.07732H44.7697C45.6017 2.07826 46.3994 2.40685 46.9877 2.99101C47.576 3.57516 47.907 4.36718 47.9079 5.19331V5.65967L27.7808 21.3453C27.0449 21.9158 26.138 22.2252 25.2044 22.2245C24.2708 22.2237 23.3644 21.9128 22.6294 21.3412L2.0921 5.65572V5.19331C2.09304 4.36718 2.42397 3.57516 3.01229 2.99101C3.6006 2.40685 4.39826 2.07826 5.23026 2.07732ZM14.8997 18.0582L2.0921 30.023V8.27647L14.8997 18.0582ZM44.7698 33.9227H5.23026C4.69451 33.9224 4.16776 33.7859 3.70015 33.5263C3.23254 33.2667 2.83964 32.8925 2.55885 32.4395L16.5795 19.342L21.3476 22.9835C22.4503 23.8388 23.8095 24.3032 25.2087 24.3028C26.608 24.3025 27.9669 23.8373 29.0691 22.9815L33.8097 19.2879L47.4466 32.4312C47.1663 32.8865 46.773 33.2627 46.3043 33.5239C45.8356 33.7851 45.3073 33.9224 44.7698 33.9227Z" fill="#505673"/>
</svg>
